<?xml version="1.0" standalone="no"?>
<svg xmlns="http://www.w3.org/2000/svg" viewBox="0 0 180.81640625 94.961" width="180.81640625" height="94.961"><rect fill="none" stroke="#d100ff" stroke-width="4" width="176.81640625" height="90.961" x="2" y="2"></rect><path fill="#ff009e" fill-rule="nonzero" d="M5.18 10L5.18 26.58Q4.24 26.46 1.56 26.46L1.56 26.46L0 26.46L0 0.41Q1.25 0.49 2.75 0.49Q4.26 0.49 4.88 0.33L4.88 0.33L11.45 11.48L17.75 0.33Q18.38 0.49 20.14 0.49Q21.89 0.49 23.14 0.41L23.14 0.41L23.14 26.46L21.58 26.46Q18.91 26.46 17.97 26.58L17.97 26.58L17.97 9.08L11.58 20.51L5.18 10ZM33.69 20.84L31.86 26.62Q30.18 26.46 27.93 26.46L27.93 26.46L26.39 26.46L34.88 2.66Q35.45 1.05 35.45 0.79Q35.45 0.53 35.43 0.47L35.43 0.47L35.45 0.43Q36.72 0.49 38.14 0.49L38.14 0.49Q39.32 0.49 40.96 0.45L40.96 0.45L40.98 0.49Q40.94 0.57 40.94 0.70L40.94 0.70Q40.94 1.07 41.52 2.68L41.52 2.68L50.20 26.52Q49.80 26.50 49.28 26.50L49.28 26.50Q49.28 26.50 48.26 26.46L48.26 26.46Q47.77 26.46 47.38 26.46L47.38 26.46L44.36 26.46L42.52 20.84L33.69 20.84ZM35.18 16.15L41.00 16.15L38.05 7.07L35.18 16.15ZM66.27 26.62L61.74 16.37Q61.15 16.41 60.49 16.41Q59.82 16.41 58.52 16.31L58.52 16.31L58.52 26.46L53.34 26.46L53.34 0.35Q56.07 0 60.06 0L60.06 0Q65.49 0 68.15 2.00Q70.82 4.00 70.82 8.18L70.82 8.18Q70.82 11.43 68.38 13.73L68.38 13.73Q67.58 14.47 66.54 15.02L66.54 15.02L70.53 23.42Q71.70 26.02 72.32 26.50L72.32 26.50L72.23 26.60Q70.33 26.29 66.27 26.62L66.27 26.62ZM60.43 4.61L60.43 4.61Q59.43 4.61 58.52 4.71L58.52 4.71L58.52 12.17Q59.47 12.30 60.76 12.30Q62.05 12.30 62.93 12.08Q63.81 11.86 64.45 11.39L64.45 11.39Q65.84 10.35 65.84 8.28Q65.84 6.21 64.39 5.37L64.39 5.37Q63.05 4.61 60.43 4.61ZM88.28 0L88.28 0Q91.93 0 94.51 1.27L94.51 1.27L94.51 7.25L94.47 7.29Q93.38 5.61 89.86 5.06L89.86 5.06Q88.83 4.88 87.25 4.88Q85.66 4.88 84.14 5.48Q82.62 6.07 81.64 7.17L81.64 7.17Q79.75 9.30 79.75 13.24L79.75 13.24Q79.75 17.83 82.15 20.08L82.15 20.08Q84.14 21.95 87.42 21.95L87.42 21.95Q91.13 21.95 93.44 20.37L93.44 20.37Q94.28 19.80 94.86 18.96L94.86 18.96L94.92 19.00L94.92 24.47Q91.93 26.95 86.88 26.95L86.88 26.95Q80.92 26.95 77.54 23.16L77.54 23.16Q74.30 19.55 74.30 13.59L74.30 13.59Q74.30 7.29 77.85 3.65L77.85 3.65Q81.45 0 88.28 0ZM104.94 21.78L112.91 21.78Q114.12 21.78 114.59 21.54L114.59 21.54L114.67 21.56L114.47 26.46L99.84 26.46L99.84 0.35Q100.37 0.39 101.02 0.41L101.02 0.41L102.38 0.45Q103.75 0.49 105.35 0.49L105.35 0.49Q109.82 0.49 114.20 0.33L114.20 0.33Q113.98 2.05 113.98 4.92L113.98 4.92Q113.98 5.23 114.02 5.39L114.02 5.39L113.98 5.45Q112.97 5.16 111.09 5.16L111.09 5.16L104.94 5.16L104.94 10.14L109.57 10.14Q111.72 10.14 112.15 10.02L112.15 10.02L112.21 14.84Q111.27 14.75 109.79 14.75L109.79 14.75L104.94 14.75L104.94 21.78ZM125.55 26.46L123.69 26.46Q120.82 26.46 119.88 26.58L119.88 26.58L119.88 0.37Q120.35 0.49 121.83 0.49Q123.30 0.49 125.25 0.41L125.25 0.41L125.25 21.78L129.30 21.78Q131.05 21.78 132.11 21.66L132.11 21.66Q131.97 26.23 131.97 26.41L131.97 26.41L131.97 26.60Q130.06 26.46 125.55 26.46L125.55 26.46ZM140.31 20.84L138.48 26.62Q136.80 26.46 134.55 26.46L134.55 26.46L133.01 26.46L141.50 2.66Q142.07 1.05 142.07 0.79Q142.07 0.53 142.05 0.47L142.05 0.47L142.07 0.43Q143.34 0.49 144.77 0.49L144.77 0.49Q145.94 0.49 147.58 0.45L147.58 0.45L147.60 0.49Q147.56 0.57 147.56 0.70L147.56 0.70Q147.56 1.07 148.14 2.68L148.14 2.68L156.82 26.52Q156.43 26.50 155.90 26.50L155.90 26.50Q155.90 26.50 154.88 26.46L154.88 26.46Q154.39 26.46 154.00 26.46L154.00 26.46L150.98 26.46L149.14 20.84L140.31 20.84ZM141.80 16.15L147.62 16.15L144.67 7.07L141.80 16.15Z" transform="translate(12 12) scale(1)"></path><path fill="#ff009e" fill-rule="nonzero" d="M5.66 26.13L3.81 26.13Q0.94 26.13 0 26.25L0 26.25L0 0.04Q0.47 0.16 1.94 0.16Q3.42 0.16 5.37 0.08L5.37 0.08L5.37 21.45L9.41 21.45Q11.17 21.45 12.23 21.33L12.23 21.33Q12.09 25.90 12.09 26.07L12.09 26.07L12.09 26.27Q10.18 26.13 5.66 26.13L5.66 26.13ZM21.80 21.45L29.77 21.45Q30.98 21.45 31.45 21.21L31.45 21.21L31.52 21.23L31.33 26.13L16.70 26.13L16.70 0.02Q17.23 0.06 17.87 0.08L17.87 0.08L19.24 0.12Q20.61 0.16 22.21 0.16L22.21 0.16Q26.68 0.16 31.05 0L31.05 0Q30.84 1.72 30.84 4.59L30.84 4.59Q30.84 4.90 30.88 5.06L30.88 5.06L30.84 5.12Q29.82 4.82 27.95 4.82L27.95 4.82L21.80 4.82L21.80 9.80L26.43 9.80Q28.57 9.80 29.00 9.69L29.00 9.69L29.06 14.51Q28.13 14.41 26.64 14.41L26.64 14.41L21.80 14.41L21.80 21.45ZM51.54 15.88L51.54 0.06Q52.75 0.16 53.55 0.16L53.55 0.16L55.18 0.16Q56.00 0.16 56.89 0L56.89 0L56.89 16.15Q56.89 20.96 53.98 23.87L53.98 23.87Q51.23 26.62 47.07 26.62L47.07 26.62Q42.52 26.62 39.71 24.26L39.71 24.26Q36.56 21.60 36.56 16.60L36.56 16.60L36.56 0.06Q38.18 0.16 39.62 0.16Q41.05 0.16 41.99 0L41.99 0L41.99 16.86Q41.99 19.32 43.50 20.68L43.50 20.68Q44.90 21.93 47.01 21.93L47.01 21.93Q50.14 21.93 51.17 18.73L51.17 18.73Q51.54 17.58 51.54 15.88L51.54 15.88ZM62.89 2.50L62.89 1.91Q62.89 1.27 62.83 0.16L62.83 0.16L81.35 0.16L69.98 21.45L77.07 21.45Q79.84 21.45 80.34 21.28Q80.84 21.11 81.13 20.98L81.13 20.98L81.13 26.43Q80.29 26.35 79.75 26.29Q79.20 26.23 78.59 26.19L78.59 26.19Q77.68 26.13 75.04 26.13L75.04 26.13L61.89 26.13L73.65 4.84L67.50 4.84Q63.69 4.84 62.66 5.25L62.66 5.25Q62.89 4.28 62.89 2.50L62.89 2.50ZM86.11 2.50L86.11 1.91Q86.11 1.27 86.05 0.16L86.05 0.16L104.57 0.16L93.20 21.45L100.29 21.45Q103.07 21.45 103.56 21.28Q104.06 21.11 104.36 20.98L104.36 20.98L104.36 26.43Q103.52 26.35 102.97 26.29Q102.42 26.23 101.82 26.19L101.82 26.19Q100.90 26.13 98.26 26.13L98.26 26.13L85.12 26.13L96.88 4.84L90.72 4.84Q86.91 4.84 85.88 5.25L85.88 5.25Q86.11 4.28 86.11 2.50L86.11 2.50ZM110.51 26.13L110.51 0.08Q112.46 0.16 112.87 0.16L112.87 0.16L114.28 0.16Q115.31 0.16 115.94 0L115.94 0L115.92 26.13L110.51 26.13Z" transform="translate(12 46.954) scale(1.353)"></path></svg>